<svg width="24" height="24" viewBox="0 0 24 24" fill="none" xmlns="http://www.w3.org/2000/svg">
<path d="M3.00006 10.9873V15.4927C3.00006 18.3245 3.00006 19.7405 3.87874 20.6202C4.75742 21.5 6.17163 21.5 9.00006 21.5H15.0001C17.8285 21.5 19.2427 21.5 20.1214 20.6202C21.0001 19.7405 21.0001 18.3245 21.0001 15.4927V10.9873" stroke="white" stroke-width="1.5"/>
<path d="M15.0001 16.9766C14.316 17.5838 13.2269 17.9766 12.0001 17.9766C10.7733 17.9766 9.68415 17.5838 9.00006 16.9766" stroke="white" stroke-width="1.5" stroke-linecap="round"/>
<path d="M17.7957 2.50318L6.14989 2.53226C4.41172 2.44272 3.96606 3.78283 3.96606 4.43792C3.96606 5.02383 3.89061 5.87798 2.8253 7.48334C1.75999 9.0887 1.84004 9.5656 2.44077 10.6769C2.93934 11.5993 4.20747 11.9596 4.86868 12.0202C6.96889 12.068 7.99072 10.2519 7.99072 8.97547C9.03257 12.1827 11.9956 12.1827 13.3159 11.8159C14.6386 11.4485 15.7718 10.1333 16.0391 8.97547C16.1951 10.4144 16.6682 11.254 18.0663 11.831C19.5145 12.4286 20.76 11.5152 21.3848 10.9296C22.0097 10.3441 22.4107 9.04425 21.2968 7.61554C20.5286 6.63025 20.2085 5.70204 20.1033 4.74001C20.0424 4.18258 19.9888 3.5836 19.5972 3.20243C19.0248 2.64539 18.2036 2.47637 17.7957 2.50318Z" stroke="white" stroke-width="1.5" stroke-linecap="round" stroke-linejoin="round"/>
</svg>
